<svg width="853" height="859" viewBox="0 0 853 859" fill="none" xmlns="http://www.w3.org/2000/svg">
<g id="peep-sitting-16">
<g id="pose/sitting/bike">
<path id="&#240;&#159;&#142;&#168; Background" fill-rule="evenodd" clip-rule="evenodd" d="M831.862 699.601C818.982 864.625 594.152 888.318 549.27 729.313L549.242 729.324C549.084 728.705 548.745 727.467 548.565 726.857L548.594 726.85C544.611 711.275 543.126 694.416 544.257 678.093L544.26 678.094C546.412 644.412 560.769 610.744 583.811 586.14L583.813 586.143C590.235 579.191 597.293 572.929 604.827 567.387C619.063 610.313 639.708 648.698 665.872 680.625L664.859 681.873C666.121 682.571 667.373 683.268 668.626 683.969C669.059 684.494 669.53 685.082 669.958 685.623C668.211 690.081 671.919 694.408 676.304 695.261C674.969 698.397 678.239 699.637 680.202 700.202C686.67 701.682 694.269 702.004 699.166 698.381C705.489 692.597 703.269 681.184 696.435 676.847C696.463 676.774 696.487 676.7 696.511 676.625C695.595 676.528 694.767 676.19 694.087 675.634C690.668 674.314 686.679 674.327 683.33 675.805C660.595 638.875 637.794 598.738 625.176 554.984C630.506 552.323 636.047 549.966 641.673 547.993L641.67 547.985C641.821 547.934 642.276 547.781 642.419 547.727L642.419 547.731C647.641 545.935 653.017 544.43 658.426 543.266L658.425 543.261C658.902 543.163 659.897 542.955 660.377 542.853L660.378 542.859C670.019 540.917 680.064 540.002 690.068 540.144L690.068 540.142C690.443 540.149 691.867 540.178 692.328 540.187L692.327 540.196C695.726 540.29 699.223 540.541 702.637 540.869C702.604 540.995 702.55 541.159 702.484 541.349C702.763 541.363 703.035 541.405 703.301 541.47C703.34 541.3 703.381 541.129 703.419 540.959C706.113 541.263 708.835 541.631 711.511 542.085L711.511 542.083L713.427 542.415L713.426 542.422C747.775 548.482 780.139 568.853 801.221 596.763L801.22 596.764C810.117 608.352 817.269 621.264 822.493 635.172L822.495 635.172L823.334 637.447L823.329 637.449C830.349 657.004 833.288 678.474 831.828 699.603L831.862 699.601ZM586.265 482.969C534.624 532.118 477.341 577.841 433.619 634.639L425.443 629.704L426.269 629.546C423.536 629.275 421.009 626.721 418.986 625.059C423.344 625.365 424.732 626.174 427.329 621.2C436.428 604.856 444.275 588.181 454.086 572.048C462.113 557.826 470.147 543.737 478.169 529.369C482.408 523.179 489.491 506.701 477.817 498.415C508.403 484.467 543.642 467.712 576.308 447.388C578.951 459.336 583.075 470.893 586.864 482.411L586.265 482.969ZM410.777 396.53C406.4 392.508 401.581 388.626 399.384 382.794C406.146 383.905 412.835 384.547 420.302 384.669C420.729 384.669 421.122 384.269 421.127 383.824C421.279 375.221 421.267 365.752 420.488 356.559C424.159 358.377 427.108 356.302 430.432 354.52C433.914 357.12 437.509 356.349 441.765 354.52C441.805 354.508 458.958 348.158 458.997 348.152C462.822 346.956 464.464 345.816 465.426 343.386C465.921 343.518 466.919 343.779 467.414 343.906C471.521 349.995 531.132 368.9 536.43 361.889C541.974 364.24 548.602 362.337 554.47 361.917C559.056 362.303 563.72 363.334 568.299 362.753C569.204 367.498 570.119 372.244 571.037 376.985C558.729 394.911 556.897 403.03 560.405 424.567C561.163 429.023 562.633 430.519 568.122 431.167C535.506 449.013 502.707 466.115 470.5 485.198C475.056 474.411 479.585 463.418 483.873 452.637C485.395 449.326 487.432 444.461 487.594 439.931C488.854 423.108 436.318 407.681 415.736 402.113C415.154 399.719 412.512 398.307 410.777 396.53V396.53ZM578.326 427.367C578.563 426.958 579.492 425.005 579.718 424.553C580.243 425.547 581.274 427.388 581.933 428.284C580.648 428.745 577.503 430.463 576.257 431.121L578.326 427.367ZM395.365 513.021C394.811 515.263 394.308 517.392 393.822 519.438C381.654 525.777 369.552 531.571 357.344 537.782L357.73 538.494C350.821 542.534 343.304 544.979 336.518 549.175C331.213 526.307 327.169 503.143 324.163 479.796C326.964 479.693 329.748 479.43 332.579 478.853C335.404 478.923 338.051 478.611 340.299 477.869C356.001 489.45 372.616 500.169 389.691 509.753C391.589 511.016 393.567 511.426 395.711 511.622L395.365 513.021ZM393.393 686.408C391.488 686.22 389.763 688.215 387.929 688.87C382.236 691.813 376.676 694.808 371.202 697.858C369.306 686.845 364.565 676.654 364.241 665.267L364.058 665.612C363.37 664.275 361.969 661.891 361.163 660.608C362.512 660.922 365.061 661.507 366.39 661.809L366.241 662.015C367.964 661.719 370.314 662.811 371.943 663.022C377.853 664.139 383.89 665.285 389.883 666.155C388.342 668.557 388.425 668.686 391.279 668.692C389.646 671.963 389.268 675.924 389.424 679.37C389.47 679.996 389.724 679.871 390.043 680.117C390.675 681.915 391.914 683.154 394.021 683.941L393.393 686.408ZM341.329 561.234L340.794 559.563L341.458 559.339C341.352 559.078 340.937 558.929 340.612 558.995L340.551 558.805C356.93 551.817 372.96 543.96 389.115 536.516C379.629 563.884 360.776 587.543 356.042 616.569L353.546 616.732C347.985 597.965 343.437 578.744 339.039 560.156L339.821 559.891C339.713 560.71 340.526 561.425 341.329 561.234V561.234ZM353.119 696.769C351.341 697.373 349.19 697.589 347.21 697.386C338.598 695.727 329.824 694.372 321.265 693.032C326.133 646.362 310.561 598.812 278.816 564.573C290.621 553.84 303.145 542.538 316.526 530.533C329.029 591.172 343.242 651.033 354.232 696.395L353.119 696.769ZM300.135 678.383C300.058 682.102 299.824 685.864 299.484 689.567C264.014 684.03 225.896 678.272 187.594 673.689L189.301 671.85C191.447 669.212 187.836 664.88 185.699 663.671C181.689 661.283 177.195 662.185 172.757 664.297L171.287 662.239C179.48 654.826 187.687 647.476 195.844 640.024C205.323 644.061 214.917 647.55 224.478 651.249L224.104 653.548C226.241 653.558 228.393 653.278 230.437 653.486C254.059 662.291 278.987 670.764 300.156 677.423L300.135 678.383ZM297.804 701.729C296.361 709.794 294.219 717.751 291.485 725.434L291.465 725.423C261.631 819.798 132.244 851.892 65.0929 776.852C-10.3308 703.04 26.471 556.487 132.139 534.293C138.187 545.167 143.268 556.131 148.694 567.142C151.303 573.507 156.013 579.161 157.081 586.135C157.785 588.697 158.445 591.257 159.079 593.818C159.182 593.866 159.286 593.913 159.391 593.959C159.383 593.925 159.375 593.892 159.368 593.859L161.703 592.892C166.374 600.917 172.345 614.985 177.662 623.543C184.549 633.906 184.216 633.153 189.344 633.746C183.249 639.792 177.06 645.936 170.965 651.974C165.559 657.224 160.453 663.898 152.318 665.394C149.672 665.638 147.428 666.485 145.855 668.268C145.488 669.376 144.939 670.416 144.315 671.41C141.524 681.902 155.897 690.059 163.397 681.173C208.549 688.091 252.863 693.312 298.036 700.441L297.804 701.729ZM201.077 515.38C219.159 515.128 241.03 517.327 264.956 515.991C266.381 515.61 268.016 515.328 269.109 514.535C275.486 517.776 281.966 521.119 288.523 524.145C288.018 526.986 291.095 528.679 292.074 531.164C284.074 538.689 275.841 546.048 268.248 554.1C249.082 536.72 225.708 524.17 200.739 517.902L201.077 515.38ZM850.651 665.61C841.524 590.957 775.669 524.593 699.957 520.698L699.574 518.227C703.185 516.823 706.355 513.93 708.997 509.627C685.061 507.232 660.353 510.054 638.338 518.155C634.251 519.738 629.815 521.312 625.283 520.719C624.625 519.419 623.829 518.061 622.952 516.695C622.915 516.689 622.879 516.681 622.842 516.668C621.503 516.195 620.22 515.545 619.569 514.218C618.967 512.991 618.987 511.514 618.737 510.195C618.691 509.955 618.748 509.75 618.862 509.592C616.764 505.984 614.814 502.334 610.313 501.93L611.794 500.35C612.415 499.631 612.044 498.355 610.979 498.136C604.962 476.403 597.607 455.581 591.89 433.711L590.057 434.238C589.822 433.642 588.372 430.033 588.105 429.365L591.348 431.617L590.961 430.117C619.394 441.154 647.002 446.018 673.522 441.394L673.535 441.316C676.668 440.367 679.61 439.016 682.044 437.293C683.581 437.407 683.991 436.492 684.74 433.98C686.302 428.829 688.058 423.638 689.723 418.612C699.279 387.409 712.439 357.441 721.1 326.402C721.327 326.215 722.119 325.461 721.961 325.42C687.842 305.525 605.721 311.566 561.193 318.237C561.966 330.245 564.267 342.001 566.49 353.429C550.319 341.96 534.872 328.465 515.457 322.709L520.027 321.779C520.774 321.656 521.25 320.21 520.465 319.906L519.566 319.584C521.239 306.619 506.625 305.095 498.444 311.476C496.654 312.955 494.658 318.049 497.972 319.168L497.825 321.652C495.1 322.062 491.607 323.598 488.693 325.088C489.348 321.127 487.885 315.702 483.26 319.437C416.972 289.129 445.729 257.999 440.346 208.861C440.002 194.107 438.225 193.18 424.182 186.569C416.08 181.627 407.369 178.166 398.978 173.82L399.575 173.225C398.8 171.679 397.124 168.333 396.2 166.49L395.857 166.591C394.579 163.509 393.595 160.384 393.015 157.139C392.678 153.37 390.913 151.085 386.709 150.364C376.137 148.141 365.563 149.843 361.326 161L361.274 161.009C360.246 163.957 358.262 166.967 355.791 168.404L357.32 169.77C357.257 169.887 357.193 170.004 357.128 170.121L354.728 169.406C354.734 169.276 354.748 169.096 354.759 168.965C353.411 169.577 351.814 170.038 350.179 170.036C298.986 161.353 283.657 201.365 291.266 245.492C288.251 256.88 285.587 268.286 282.837 279.62C274.811 317.453 250.713 340.967 242.505 377.538C240.341 386.426 231.355 402.77 239.244 408.47C237.891 418.915 242.28 430.137 250.108 437.991C238.282 438.323 221.802 457.591 235.75 467.071C240.825 469.293 246.92 469.037 252.456 469.996L252.029 471.416C252.256 472.676 254.378 472.595 255.402 472.47C255.4 475.494 255.015 478.794 256.251 481.472C256.387 483 257.015 483.499 257.326 483.394C259.369 483.46 261.441 483.207 263.505 483.327C266.628 488.355 271.303 491.53 276.137 488.962C279.078 487.432 279.027 483.345 281.811 481.273C289.096 476.703 297.374 477.455 305.074 477.577C308.265 488.276 309.704 499.135 312.213 509.936C308.923 514.064 305.157 518.253 300.837 522.639L300.273 522.508L299.701 522.685C296.417 519.75 292.771 514.742 288.111 516.566C249.207 481.381 186.606 486.791 138.506 487.136C116.749 487.393 94.2845 487.63 72.2216 488.633C65.9275 488.779 61.8672 489.244 61.6505 493.973C57.4898 494.154 54.4003 495.176 50.4867 495.479C48.0421 495.608 46.7685 495.804 46.6848 496.499C47.1578 503.249 47.4238 510.311 49.7793 516.616C52.2451 522.855 59.7666 522.85 65.5092 520.546C67.6637 519.624 65.8062 516.957 65.7431 515.325C64.4333 509.982 63.6154 504.514 63.3686 498.895C66.0835 499.108 68.4587 499.235 71.5865 499.276L71.6396 500.725C77.1403 500.939 100.52 501.351 106.221 500.556C103.883 503.381 102.977 506.281 105.222 509.463C111.154 516.065 122.09 513.059 129.879 514.055L129.999 516.581C7.31281 539.398 -39.3981 705.716 49.5895 791.34C136.61 885.808 302.988 829.556 319.807 703.836C327.048 705.051 334.324 706.012 341.546 707.544C337.281 711.423 331.158 713.386 326.973 717.098C319.713 724.161 317.561 728.801 320.889 732.443L320.95 732.392C323.616 733.874 326.869 733.749 329.842 732.741C331.726 732.997 333.681 733.292 335.554 733.293C338.6 733.23 341.478 732.467 342.283 730.062C342.371 729.148 340.62 727.592 339.767 726.829C344.462 723.554 349.183 719.792 354.57 716.243C355.89 715.585 356.511 714.933 356.973 713.776C380.142 722.058 404.398 704.351 419.169 691.206C419.151 691.282 419.135 691.36 419.117 691.436C420.911 689.671 422.797 687.954 424.843 687.651C425.438 687.049 426.103 686.482 426.851 685.955L437.77 686.342C440.713 686.447 444.635 687.09 447.308 686.099C453.498 683.123 450.851 674.001 447.703 669.798C452.663 669.503 457.699 669.586 462.626 668.922C475.253 667.445 471.664 654.817 461.54 651.959C458.734 648.345 446.269 644.514 445.927 639.974C492.934 590.076 543.726 542.525 590.802 495.376C592.351 500.456 592.675 505.879 592.724 511.012C592.732 523.358 596.012 535.583 598.991 547.374C490.197 616.04 504.586 795.545 624.245 844.348C741.481 898.008 868.833 788.132 850.651 665.61V665.61Z" fill="white"/>
<path id="&#240;&#159;&#150;&#141; Ink" fill-rule="evenodd" clip-rule="evenodd" d="M709.147 509.041C706.752 512.986 703.489 516.569 699.006 518.312C761.007 522.332 816.462 565.133 839.055 621.763C895.644 755.111 763.582 904.784 622.703 844.418C501.357 792.445 487.398 617.988 596.491 545.702C594.094 536.288 591.667 526.71 590.723 517.035C590.513 514.676 590.461 512.304 590.409 509.932C590.311 505.498 590.213 501.067 589.086 496.737C542.221 542.852 495.357 588.979 449.055 635.64L447.476 637.242C447.385 637.335 447.277 637.434 447.161 637.54C446.726 637.939 446.197 638.424 446.174 638.925C446.698 640.944 450.798 643.219 454.65 645.356C457.534 646.956 460.279 648.479 461.28 649.76C472.439 653.48 475.858 667.062 461.775 669.082C458.642 669.516 455.474 669.625 452.311 669.734C451.175 669.773 450.04 669.812 448.907 669.866C451.857 674.621 452.981 683.519 446.747 686.181C444.381 687.046 441.576 686.842 438.956 686.652C438.179 686.595 437.419 686.54 436.691 686.514C433.203 686.39 429.715 686.267 426.226 686.143C420.772 690.254 420.226 696.889 419.689 703.407C419.451 706.296 419.215 709.162 418.554 711.775C415.995 730.899 402.726 743.534 382.82 743.538C360.905 745.073 338.243 743.897 316.999 738.132C316.927 738.245 316.78 738.347 316.638 738.295C313.927 736.646 316.861 733.136 318.459 731.653C314.032 726.251 321.124 718.817 325.053 715.065C327.007 713.218 329.454 711.893 331.906 710.565C333.849 709.512 335.796 708.458 337.503 707.14C333.629 706.366 329.719 705.76 325.811 705.153C323.817 704.844 321.822 704.535 319.833 704.203C299.215 831.101 139.394 886.219 47.6487 791.139C-41.3687 702.621 2.77212 540.139 128.707 514.22C126.469 513.977 123.99 514.009 121.448 514.041C114.675 514.127 107.458 514.218 103.179 509.147C101.489 506.846 100.95 503.391 102.577 501.004C99.5262 501.318 48.3594 501.395 70.5345 499.449C68.2518 499.416 65.9742 499.338 63.7044 499.172C63.8429 501.435 64.0609 503.695 64.3789 505.941C64.76 508.648 65.3593 511.288 65.9603 513.936C66.221 515.085 66.4821 516.235 66.7257 517.393C67.0284 518.826 66.3025 520.243 64.8329 520.668C58.3788 523.084 50.6657 523.194 47.5559 515.986C45.3518 510.11 44.9222 503.683 44.5045 497.434C44.4589 496.751 44.4134 496.071 44.3658 495.394C44.4429 493.354 47.0377 493.217 49.3855 493.092C50.5103 493.033 51.5784 492.976 52.2859 492.715C54.6876 492.209 57.0744 491.894 59.4981 491.679C60.2734 486.514 66.2657 486.366 71.1562 486.246C72.3509 486.216 73.4798 486.188 74.4509 486.089C95.4355 485.234 116.441 484.991 137.445 484.748C142.974 484.684 148.503 484.62 154.032 484.545C154.997 484.53 155.964 484.516 156.935 484.501C201.776 483.821 251.925 483.06 287.396 514.036C291.562 512.847 294.87 516.098 297.683 518.863C298.134 519.306 298.572 519.736 298.999 520.134C299.13 520.093 299.263 520.091 299.391 520.121C303.026 516.407 306.527 512.568 309.791 508.509C308.902 504.634 308.142 500.725 307.383 496.817C306.137 490.403 304.89 483.989 303.07 477.722L302.81 477.715C295.835 477.516 287.581 477.281 281.582 481.162C280.395 482.117 279.752 483.46 279.113 484.795C278.31 486.471 277.512 488.137 275.65 489.013C270.064 491.992 264.707 488.056 261.757 483.477C260.85 483.448 259.951 483.486 259.053 483.524C258.117 483.563 257.182 483.603 256.242 483.566C254.664 483.478 254.177 482.141 253.973 480.717C252.955 478.378 253.004 475.83 253.052 473.352C253.056 473.143 253.06 472.933 253.064 472.724C251.588 472.813 249.269 471.598 249.767 469.94C248.32 469.729 246.85 469.584 245.379 469.439C241.528 469.059 237.659 468.677 234.117 467.098C219.973 458.437 233.733 438.086 246.544 435.999C239.671 428.407 235.823 418.099 236.864 407.923C230.839 403.069 234.863 391.783 237.961 383.093C238.905 380.446 239.763 378.04 240.225 376.129C243.398 361.549 249.995 348.073 256.535 334.713L256.833 334.103C258.861 330.188 260.758 326.64 262.536 323.314C270.613 308.205 276.238 297.683 280.551 278.236C281.176 275.661 281.796 273.084 282.416 270.507C284.521 261.755 286.627 253.002 288.927 244.302C288.756 243.014 288.595 241.842 288.446 240.758C287.403 233.148 286.949 229.838 287.374 220.724C288.496 183.832 306.52 161.684 349.323 167.66C354.745 167.297 357.64 163.682 359.234 158.893C359.38 158.563 359.89 158.807 359.806 159.13C359.091 162.447 357.993 166.219 354.987 168.177C353.49 185.689 381.875 191.539 393.856 182.854C397.519 180.576 398.475 178.559 398.56 174.415C396.919 172.407 396.631 169.927 396.344 167.446C396.189 166.116 396.035 164.785 395.672 163.528L400.101 172.37C402.759 173.717 405.452 174.988 408.144 176.258C413.428 178.751 418.706 181.242 423.697 184.304C437.95 191.039 440.221 192.213 440.59 207.64C441.912 222.473 440.872 235.1 439.954 246.235C437.512 275.868 435.941 294.927 482.103 316.852C486.354 313.881 489.289 317.661 489.059 321.875C491.462 320.706 493.876 319.768 496.564 319.284C492.204 317.953 493.905 311.643 496.607 309.37C505.438 302.663 520.609 303.891 519.865 317.593C521.895 318.32 521.273 321.513 519.249 321.925C532.724 326.616 544.187 335.108 555.54 343.518C558.219 345.503 560.892 347.483 563.585 349.408C561.471 338.518 559.486 327.555 558.837 316.517C558.67 316.459 558.64 316.205 558.814 316.129C558.521 314.302 559.256 314.016 559.735 315.905C593.048 309.9 627.249 309.675 661.026 310.126C679.236 310.354 697.564 312.779 714.493 319.642C714.927 319.866 715.621 320.126 716.418 320.423C719.536 321.589 724.243 323.348 721.261 325.953C720.658 329.746 719.394 333.433 718.14 337.091C717.925 337.716 717.711 338.34 717.501 338.964C717.008 340.337 716.514 341.709 716.021 343.081C707.302 367.327 698.585 391.57 690.529 416.039C690.318 416.675 690.106 417.311 689.894 417.948C688.28 422.791 686.667 427.635 685.151 432.508C685.08 432.738 685.01 432.98 684.938 433.228C684.384 435.144 683.719 437.445 681.412 437.463C679.032 439.087 676.381 440.306 673.633 441.19C668.413 471.131 644.147 493.335 622.491 513.15L622.088 513.519C623.157 515.089 624.174 516.713 625.06 518.398C629.176 518.761 633.032 517.299 636.848 515.851C638.735 515.135 640.612 514.423 642.506 513.937C663.463 507.138 686.187 505.074 708.101 507.246C708.96 507.332 709.683 508.211 709.147 509.041ZM577.871 800.811C653.81 881.709 790.058 851.46 829.302 750.062C883.269 622.905 755.076 480.718 622.189 542.899L622.255 543.13C622.887 545.308 623.517 547.484 624.174 549.653C699.013 511.641 794.2 552.094 823.388 628.49C874.166 748.116 755.83 882.572 629.357 828.414C522.713 783.274 507.985 629.513 601.506 563.272C600.78 560.964 600.08 558.648 599.405 556.327C520.21 610.641 510.164 733.683 577.871 800.811ZM709.55 694.964C707.385 693.205 705.231 691.435 703.087 689.651C702.93 691.234 702.531 692.785 701.869 694.248C704.431 694.48 706.991 694.722 709.55 694.964ZM698.187 692.005C698.09 692.179 697.987 692.35 697.88 692.519C697.885 692.533 697.889 692.547 697.893 692.561C697.898 692.576 697.902 692.592 697.908 692.608C698.008 692.408 698.1 692.209 698.187 692.005ZM697.55 693.031C697.37 693.298 697.181 693.563 696.978 693.82L697.137 693.835C697.301 693.626 697.452 693.406 697.588 693.18C697.575 693.129 697.563 693.081 697.55 693.031ZM689.145 690.302C689.132 690.533 689.147 690.609 689.17 690.609C689.211 690.609 689.283 690.339 689.229 690.329C689.231 690.329 689.227 690.328 689.217 690.325C689.204 690.321 689.179 690.313 689.145 690.302ZM686.826 681.815C687.826 683.029 688.874 684.304 689.242 685.854C689.478 686.859 689.398 687.791 689.296 688.774C689.794 688.382 690.252 687.843 690.715 687.298C691.888 685.917 693.091 684.5 695.056 685.345C695.408 680.455 689.442 676.997 685.056 678.533C685.012 678.583 684.864 678.842 684.907 678.933C685.274 679.927 686.034 680.852 686.826 681.815ZM683.112 694.283C683.112 694.087 683.145 693.885 683.214 693.699C682.183 694.588 680.934 695.148 679.59 695.422C679.929 695.529 680.282 695.624 680.627 695.717C680.997 694.929 682.171 694.571 683.053 694.301L683.112 694.283ZM679.862 676.429C679.062 676.682 678.161 676.968 678.172 677.721C678.47 677.674 678.214 678.018 678.067 678.033C678.705 678.18 679.336 678.389 679.947 678.648C679.961 677.804 680.268 676.837 680.677 676.128C680.457 676.24 680.167 676.332 679.862 676.429ZM673.753 684.25C674.052 684.695 674.349 685.14 674.631 685.596C676.201 688.273 672.181 690.611 670.365 688.064C670.47 688.396 670.604 688.714 670.763 689.009C670.886 688.908 670.987 689.097 670.845 689.155C672.231 691.543 675.207 692.483 677.947 692.436C677.799 690.548 678.016 690.523 678.137 692.423C685.287 691.497 684.083 679.812 672.343 681.317C672.266 681.383 672.189 681.453 672.115 681.524C672.579 682.495 673.167 683.373 673.753 684.25ZM603.144 568.368C595.878 573.816 588.985 580.1 582.81 586.899C600.233 606.64 617.212 626.82 634.184 646.992C640.57 654.582 646.955 662.171 653.362 669.734C654.082 670.588 654.814 671.436 655.547 672.285C657.366 674.392 659.19 676.505 660.847 678.724C661.84 679.269 662.836 679.808 663.845 680.327C636.709 647.173 616.713 608.676 603.144 568.368ZM544.417 678.482C543.433 694.63 545.011 711.082 549.09 726.534C573.69 717.622 598.556 709.404 623.419 701.187C635.42 697.22 647.421 693.254 659.39 689.21C639.032 684.914 618.286 683.968 597.531 683.021C579.753 682.21 561.969 681.399 544.417 678.482ZM634.314 699.161C609.773 707.271 585.231 715.381 560.599 723.223C559.733 723.5 558.865 723.785 557.995 724.071C555.069 725.033 552.12 726.003 549.135 726.693C594.532 885.785 814.091 862.891 829.414 699.848C790.572 701.835 751.559 700.791 712.887 696.524C733.697 712.445 755.092 727.615 776.475 742.776C785.214 748.972 793.951 755.167 802.645 761.411C803.184 761.895 802.494 762.653 801.901 762.359C770.514 742.076 740.495 719.492 711.225 696.322C707.981 695.924 704.741 695.481 701.515 694.984C700.992 695.972 700.34 696.892 699.558 697.688C712.455 740.093 721.605 783.803 726.106 827.848C726.152 828.523 725.024 828.672 724.902 828.006C718.602 784.348 710.293 740.98 698.888 698.308C693.297 702.376 685.35 701.78 678.891 700.344C682.816 744.502 686.236 788.764 688.875 833.001C688.811 833.977 687.275 834.294 687.056 833.243C683.338 788.969 680.751 744.543 678.311 700.17C675.852 699.409 673.128 697.732 673.753 695.024C671.495 694.327 669.523 692.81 668.367 690.899C667.15 692.696 665.929 694.489 664.708 696.282C662.229 699.925 659.75 703.566 657.308 707.232C657.804 706.838 658.3 706.444 658.796 706.051C663.136 702.603 667.48 699.152 671.95 695.886C672.473 695.503 673.092 695.967 673.208 696.492C670.202 699.887 666.268 702.72 662.336 705.55C659.551 707.555 656.768 709.559 654.317 711.761C635.391 740.591 618.996 771.029 605.56 802.699C605.001 804.022 602.78 803.457 603.337 802.097C615.57 771.747 631.073 742.724 649.331 715.458C641.164 721.679 632.955 728.015 624.732 734.363C608.057 747.234 591.322 760.152 574.757 772.245C594.455 756.514 614.283 740.935 634.127 725.385C636.953 723.176 639.778 720.967 642.603 718.759C645.784 716.272 648.965 713.785 652.145 711.3C656.626 704.772 661.309 698.379 666.282 692.224C658.545 697.103 650.819 702.026 643.089 706.953C619.482 721.998 595.829 737.072 571.651 750.982C571.041 751.116 570.723 750.461 571.079 750.014C589.552 737.651 608.781 726.113 627.98 714.593C641.414 706.532 654.834 698.48 667.97 690.16C667.198 688.545 666.967 686.693 667.511 684.795C667.258 684.477 667.005 684.166 666.754 683.86C631.731 664.259 593.966 646.581 557.311 632.086C591.464 644.005 624.492 658.92 656.187 676.176C648.414 666.755 640.595 657.364 632.776 647.971C615.943 627.753 599.107 607.53 582.713 587.005C559.991 611.901 546.4 644.745 544.431 678.278C560.624 680.328 577.01 680.815 593.392 681.301C617.832 682.028 642.264 682.754 666.038 688.668C667.162 689.042 666.687 690.546 665.559 690.377C664.453 690.211 663.353 690.014 662.255 689.8C659.747 690.848 657.143 691.677 654.544 692.503C653.6 692.804 652.657 693.104 651.719 693.414C645.917 695.327 640.115 697.244 634.314 699.161ZM798.592 595.689C767.927 622.735 736.071 648.902 702.389 672.192C699.478 672.198 703.706 669.148 705.743 667.679C706.183 667.362 706.52 667.118 706.662 666.995C738.017 644.12 768.372 619.963 798.41 595.452C777.188 568.044 745.902 548.501 711.573 542.468L711.305 544.495C706.077 583.898 700.848 623.314 697.924 662.963C715.52 628.551 734.93 593.497 758.207 563.071C737.746 596.71 717.317 630.412 699.832 665.667C699.401 666.521 698.983 667.396 698.562 668.275C698.153 669.129 697.743 669.988 697.316 670.838C697.262 671.335 697.235 671.842 697.208 672.352C697.156 673.327 697.103 674.308 696.862 675.228C701.205 678.456 703.524 684.018 703.117 689.299C705.736 691.226 708.352 693.159 710.966 695.1L711.62 695.162C716.108 695.588 720.594 696.013 725.087 696.39C759.805 699.358 794.726 699.844 829.526 698.243C830.972 676.978 827.968 655.423 820.675 635.636C781.107 647.494 741.973 660.786 703.392 675.428C702.374 675.752 701.684 674.162 702.661 673.721C741.145 658.681 780.601 645.981 820.611 635.46C815.338 621.137 807.879 607.622 798.592 595.689ZM642.45 547.614C644.724 552.085 646.792 556.603 648.739 561.213C649.549 562.82 652.089 569.902 647.944 567.95C646.515 566.432 645.669 564.419 644.964 562.499C643.23 557.833 641.72 553.12 640.491 548.297C635.461 550.086 630.472 552.191 625.676 554.55C638.063 596.935 659.801 635.656 682.841 673.134C686.082 671.944 689.825 671.992 693.041 673.18C695.27 669.107 695.397 666.829 695.619 662.838C695.646 662.353 695.674 661.843 695.708 661.302C699.093 621.495 703.097 581.588 710.882 542.345C708.394 541.914 705.893 541.551 703.377 541.256C703.304 541.571 703.23 541.887 703.155 542.205C702.635 544.413 702.098 546.697 701.931 548.96C701.895 549.353 701.656 549.817 701.21 549.89C696.474 550.17 698.823 543.682 699.774 541.055L699.835 540.885C696.65 540.596 693.446 540.412 690.225 540.341C687.082 582.964 685.578 625.663 685.131 668.381C685.093 669.112 684.018 669.109 683.976 668.381C683.313 625.677 685.448 582.819 689.876 540.331C679.411 540.121 668.952 541.066 658.839 543.161C664.646 582.146 671.298 621.005 678.586 659.735C678.657 660.45 677.549 660.533 677.356 659.898C669.335 621.352 662.89 582.379 658.237 543.287C652.899 544.414 647.634 545.855 642.45 547.614ZM595.169 510.164C595.35 514.375 595.531 518.586 596.325 522.75C606.958 580.436 633.361 634.831 670.591 680.503C670.599 680.501 670.607 680.501 670.617 680.501C669.873 677.216 675.41 677.442 677.49 677.91C676.796 676.829 678.419 675.707 679.551 674.925C679.846 674.721 680.107 674.54 680.286 674.389C648.659 635.121 613.979 554.919 611.67 504.943C611.67 504.575 612.25 504.484 612.329 504.855C614.384 514.222 616.769 523.532 619.328 532.791C641.235 522.605 664.983 517.549 689.231 517.889C690.441 517.322 691.581 516.766 692.515 515.87C693.133 515.572 693.687 515.445 694.268 515.313C694.486 515.263 694.708 515.212 694.939 515.151C696.252 514.381 697.698 513.81 699.141 513.239C701.577 512.275 704.008 511.314 705.785 509.406C686.161 507.646 666.211 509.361 647.2 514.46C640.317 516.79 633.413 519.056 626.4 520.984C626.651 521.374 626.834 521.827 627.018 522.28C627.325 523.04 627.633 523.799 628.259 524.262C629.593 525.394 628.503 527.317 627.082 527.735C624.709 528.436 623.773 526.079 623.281 524.331C622.18 520.415 620.886 516.5 618.895 512.924C618.286 511.82 617.739 510.662 617.192 509.502C615.619 506.169 614.036 502.816 610.916 500.633C609.746 500.927 608.524 500.909 607.308 500.891C606.759 500.883 606.212 500.875 605.671 500.896C603.18 500.934 600.706 501.296 598.241 501.657C597.047 501.831 595.856 502.006 594.665 502.143C594.938 504.809 595.053 507.486 595.169 510.164ZM590.982 486.725C591.718 489.11 592.453 491.495 593.123 493.899C593.664 495.951 594.083 498.01 594.393 500.077C598.379 497.428 603.205 496.233 607.958 495.832C605.336 486.094 602.387 476.371 599.44 466.655C595.773 454.562 592.109 442.481 589.083 430.398C589.073 430.265 589.08 430.129 589.096 429.993L588.83 429.853C586.183 428.453 584.216 427.413 581.046 428.244C579.149 428.626 577.56 429.508 577.222 431.444C577.172 431.731 576.988 431.883 576.767 431.934C580.608 444.428 584.421 456.975 586.686 469.877C587.562 475.636 589.271 481.178 590.982 486.725ZM500.101 581.145C510.772 570.351 521.443 559.556 532.197 548.842C550.748 530.263 569.443 511.818 588.253 493.496C587.502 490.947 586.705 488.417 585.906 485.884C585.466 484.488 585.026 483.09 584.593 481.689C564.79 503.139 543.449 523.303 522.107 543.468C491.791 572.112 461.474 600.759 435.558 633.094C435.46 633.22 435.355 633.336 435.242 633.439C435.948 633.428 441.837 634.133 438.76 634.259C439.644 634.479 440.257 635.595 439.356 636.121L441.085 637.165C441.967 637.697 442.848 638.23 443.73 638.762C444.022 636.856 446.064 634.997 447.981 633.253C449.007 632.32 449.997 631.419 450.663 630.561C467.336 614.289 483.718 597.718 500.101 581.145ZM460.348 652.299C459.871 651.979 459.378 651.647 459.287 651.075C451.322 646.258 443.361 641.44 435.4 636.617C434.383 636.837 433.26 636.875 432.131 636.914C429.59 637 427.017 637.088 425.536 639.255C425.595 639.616 425.462 640.012 425.116 640.18C424.415 640.94 422.773 640.676 422.723 639.278C422.83 636.006 427.847 634.306 430.566 633.689C428.455 632.41 426.345 631.132 424.235 629.854C421.658 630.427 419.126 631.194 416.649 632.095C416.363 632.199 416.057 632.341 415.739 632.488C414.883 632.884 413.947 633.318 413.114 633.137C413.08 633.176 413.047 633.216 413.018 633.255C412.985 633.299 412.955 633.343 412.928 633.387C412.983 633.41 413.037 633.434 413.09 633.457C413.259 633.53 413.411 633.596 413.505 633.62C414.539 633.908 414.28 635.357 413.259 635.407C411.669 635.485 409.099 635.057 409.632 632.854C411.012 629.76 416.938 628.458 420.272 627.726C420.386 627.701 420.497 627.676 420.604 627.653C420.135 627.37 419.66 627.081 419.181 626.788C414.232 623.771 408.772 620.441 402.879 620.972C401.999 621.586 400.93 621.542 399.937 621.244C396.106 622.044 392.644 623.993 389.476 626.199C387.145 627.612 385.072 629.496 383 631.379C379.523 634.539 376.05 637.695 371.37 638.618C365.029 639.473 356.754 633.002 355.276 627.282C355.135 627.262 354.994 627.229 354.856 627.186C352.885 633.536 352.947 640.185 353.13 646.728C364.257 647.431 375.377 648.316 386.499 649.201C403.54 650.557 420.585 651.913 437.668 652.618C442.927 652.875 448.186 653.107 453.447 653.313C455.922 653.435 458.346 653.397 460.672 652.523C460.568 652.447 460.459 652.374 460.348 652.299ZM353.058 647.378C353.033 647.567 353.001 647.757 352.965 647.946C353.673 647.819 354.402 647.795 355.13 647.8C354.408 647.712 353.695 647.591 353.058 647.378ZM459.928 665.899C469.79 665.531 470.538 658.495 462.494 653.742C461.495 654.343 460.188 654.41 459.021 654.471C458.697 654.487 458.384 654.504 458.091 654.53C457.623 655.981 452.913 655.592 449.214 655.287C447.54 655.148 446.073 655.027 445.301 655.101C430.533 654.766 415.813 653.492 401.1 652.218C386.187 650.927 371.283 649.637 356.344 649.326C356.169 649.326 355.987 649.322 355.802 649.319C354.265 649.293 352.466 649.263 351.671 650.454C351.649 653.515 352.388 656.017 355.843 656.461C378.208 661.966 401.07 665.371 424.098 666.317C435.995 666.774 448.051 666.899 459.928 665.899ZM442.92 679.598C442.918 678.805 442.915 678.013 442.926 677.219C442.931 676.879 442.962 676.473 442.995 676.043C443.04 675.459 443.088 674.831 443.079 674.266C438.991 673.848 434.9 673.439 430.802 673.137C431.012 673.588 431.117 674.082 431.092 674.563C431.775 675.19 432.16 676.167 432.023 677.113C432.519 677.892 432.689 678.851 432.438 679.704C435.929 679.78 439.422 679.747 442.92 679.598ZM353.055 709.772C376.808 720.502 400.39 703.374 417.729 688.603C418.204 687.643 418.768 686.736 419.44 685.902C416.263 685.66 413.102 685.622 409.95 685.585C404.314 685.519 398.704 685.452 393.066 684.218C395.46 686.735 391.905 687.893 389.306 688.739C388.608 688.967 387.978 689.171 387.552 689.374C382.135 691.507 376.684 693.56 371.206 695.534C373.152 713.3 356.053 710.287 352.13 696.579C350.925 696.876 349.701 696.969 348.455 696.914C348.22 697.209 347.844 697.408 347.377 697.341C343.012 696.716 338.662 695.963 334.312 695.21C332.132 694.833 329.953 694.455 327.772 694.094C324.169 693.546 320.574 692.931 316.977 692.316C310.357 691.184 303.735 690.051 297.068 689.334C297.076 689.263 297.084 689.19 297.089 689.12C286.289 687.517 275.492 685.848 264.693 684.178C233.057 679.286 201.402 674.391 169.585 671.156C168.069 671.009 166.791 669.88 167.023 668.268C167.017 668.273 167.012 668.276 167.007 668.278C166.826 669.333 166.721 670.428 166.616 671.528C166.285 674.991 165.948 678.508 163.216 681.032C222.879 686.351 282.284 695.01 341.286 705.065C344.721 705.946 347.889 707.403 351.076 708.868C351.734 709.171 352.393 709.474 353.055 709.772ZM386.045 738.864C405.936 737.907 412.84 722.421 414.467 705.065C414.604 703.987 414.72 702.864 414.838 701.718C415.113 699.043 415.402 696.241 416.016 693.58C399.951 707.228 378.695 721.113 356.592 714.213C356.124 715.135 355.133 715.699 354.173 716.247C353.749 716.488 353.332 716.726 352.968 716.99C348.902 719.948 344.827 722.903 340.749 725.846C342.209 727.203 343.364 729.08 341.744 730.788C338.54 734.261 333.546 733.575 329.191 732.977L328.92 732.94C326.114 733.827 322.854 734.074 320.11 732.789C318.649 734.003 317.094 735.547 317.054 737.502C317.272 737.303 317.325 737.466 317.248 737.676L317.502 737.694C340.278 739.351 363.251 741.022 386.045 738.864ZM327.637 715.502C324.174 718.777 320.686 722.818 319.733 727.562C319.453 729.927 321.569 730.528 323.504 730.355C323.832 729.904 324.735 729.736 325.272 730.019C326.446 729.674 327.57 729.126 328.652 728.588C337.427 724.323 345.731 719.156 353.209 712.945C352.178 712.613 350.761 711.928 349.214 711.179C345.904 709.577 341.999 707.688 340.009 708.365C338.963 709.004 337.932 709.665 336.901 710.327C333.922 712.239 330.947 714.148 327.637 715.502ZM55.4123 783.803C129.051 861.506 261.387 832.879 299.759 734.951C304.096 724.47 307.246 713.626 309.198 702.517C306.325 702.066 303.452 701.62 300.577 701.176C281.72 813.79 143.095 864.203 61.2501 778.314C-15.2575 701.097 19.4943 556.369 128.479 529.953C127.961 528.464 127.558 526.947 127.312 525.391C11.9253 552.215 -26.6381 702.236 55.4123 783.803ZM259.996 559.132C233.202 535.084 197.78 521.271 161.477 521.402C150.21 521.402 139.133 522.657 128.335 525.15C128.73 526.682 129.279 528.159 129.93 529.598C174.397 518.728 223.129 532.323 255.962 563.746C256.978 562.738 257.996 561.729 259.014 560.721C259.077 560.327 259.353 559.98 259.622 559.641C259.758 559.471 259.891 559.303 259.996 559.132ZM120.789 510.96C123.123 510.911 125.322 510.864 127.127 511.049C138.613 511.461 149.985 511.251 161.478 510.817C186.417 512.181 211.35 512.559 236.306 512.937C245.329 513.074 254.355 513.211 263.385 513.394C263.482 513.249 263.607 513.118 263.759 513.006C252.983 506.737 241.34 500.724 228.601 500.027C201.811 498.917 174.955 499.565 148.107 500.213C133.164 500.573 118.223 500.934 103.298 500.991C102.4 502.73 102.716 504.845 103.772 506.526C106.776 511.257 114.303 511.098 120.789 510.96ZM63.6115 497.453C70.7293 496.688 77.9008 496.284 85.0635 496.102C132.211 495.002 179.458 493.903 226.597 495.394C232.432 495.908 237.995 497.15 243.43 499.063C246.641 499.93 249.788 501.022 252.835 502.365C255.442 503.478 257.858 504.921 260.274 506.365C262.595 507.751 264.917 509.137 267.408 510.233C269.454 511.256 271.508 512.267 273.563 513.278C278.539 515.727 283.519 518.178 288.391 520.807C289.691 521.508 289.51 522.891 288.688 523.653C289.178 524.482 289.816 525.209 290.451 525.933C290.619 526.124 290.787 526.315 290.952 526.508C291.655 525.933 292.378 525.379 293.101 524.826C294.228 523.964 295.355 523.101 296.413 522.152C295.936 521.741 295.37 521.145 294.743 520.484C292.494 518.113 289.457 514.912 286.924 516.432C286.76 516.546 286.588 516.536 286.447 516.457C249.141 486.539 198.255 486.285 151.989 487.66C127.674 487.843 103.353 488.171 79.0411 488.647C77.8864 488.827 75.9741 488.782 73.8054 488.732C68.4403 488.607 61.506 488.445 60.5901 491.551C63.6087 491.488 63.6089 494.513 63.609 496.826C63.609 497.042 63.609 497.252 63.6115 497.453ZM60.3912 514.976C60.0819 515.954 59.4187 516.616 58.642 516.924C59.3576 516.826 60.0758 516.656 60.7734 516.452C60.6375 515.964 60.5118 515.472 60.3912 514.976ZM288.083 527.903C287.29 526.922 286.494 525.938 286.225 524.721C286.179 524.5 286.157 524.183 286.172 523.837C280.736 521.309 275.386 518.586 270.041 515.864C269.402 515.539 268.764 515.214 268.126 514.89C267.401 515.325 266.326 515.594 265.33 515.844C265.143 515.891 264.958 515.937 264.779 515.983C264.524 516.447 264.046 516.783 263.341 516.77C242.233 516.371 221.126 515.968 200.019 515.553C224.91 521.808 248.048 534.152 267.143 551.21C272.692 545.385 278.591 539.901 284.492 534.416C286.144 532.88 287.797 531.344 289.441 529.801C289.076 529.132 288.58 528.518 288.083 527.903ZM160.31 608.027C158.584 600.409 156.859 592.794 154.791 585.294C154.165 581.052 152.039 577.205 149.909 573.348C148.667 571.101 147.423 568.85 146.473 566.516C145.114 563.762 143.775 561.007 142.438 558.255C138.586 550.327 134.748 542.428 130.456 534.661C127.707 535.329 124.975 536.087 122.27 536.939C131.831 566.647 140.644 596.614 149.451 626.559C151.834 634.661 154.216 642.76 156.612 650.853L156.801 650.82C160.123 650.244 163.608 649.638 166.284 647.486C167.759 646.299 169.862 648.265 168.587 649.51C165.452 652.175 161.365 652.959 157.311 653.737C152.298 654.699 147.337 655.651 144.291 660.138C143.106 662.04 142.67 664.47 143.945 666.259C145.64 664.021 148.453 663.382 151.111 663.018C157.376 661.885 161.94 657.193 166.263 652.749C167.195 651.791 168.115 650.845 169.039 649.949C173.972 645.061 178.902 640.169 183.833 635.277L185.456 633.666C179.758 633.151 171.398 616.027 165.318 603.57C162.974 598.769 160.969 594.662 159.585 592.466C160.784 597.711 162.055 602.945 163.325 608.18C166.2 620.028 169.077 631.882 171.139 643.885C171.207 644.454 171.212 645.021 171.218 645.588C171.223 646.08 171.227 646.572 171.273 647.065C171.285 647.178 171.12 647.183 171.082 647.091C166.295 634.454 163.301 621.237 160.31 608.027ZM205.088 719.102C201.963 717.261 207.719 714.515 209.397 716.284C209.474 716.34 209.497 716.421 209.482 716.488C230.856 716.461 252.195 717.859 273.448 720.022C276.234 720.309 279.014 720.637 281.792 720.987C282.685 721.163 283.614 721.248 284.546 721.333C286.347 721.497 288.157 721.661 289.73 722.494C292.233 715.284 294.159 707.905 295.508 700.395C272.168 696.725 248.759 693.523 225.35 690.321C204.491 687.468 183.633 684.615 162.823 681.43C153.749 690.767 138.246 681.031 142.353 669.069C137.311 664.332 141.433 656.543 146.768 653.88C149.386 652.401 152.274 651.657 155.208 651.105C152.353 641.479 149.469 631.858 146.585 622.235C138.096 593.916 129.603 565.583 121.835 537.075C22.0483 567.893 -6.47485 702.644 64.9857 774.861C134.403 849.055 256.113 818.584 288.776 725.166C285.983 724.914 283.189 724.66 280.394 724.406C258.094 722.377 235.715 720.342 213.301 719.626C212.641 719.598 211.975 719.577 211.307 719.557C209.226 719.494 207.119 719.43 205.088 719.102ZM307.031 516.078C306.498 516.556 305.967 517.031 305.453 517.513C283.875 538.446 262.624 559.705 241.373 580.964C227.467 594.874 213.562 608.784 199.565 622.603C194.331 627.489 189.336 632.672 184.338 637.858C175.779 646.74 167.212 655.631 157.42 663.048C156.032 663.827 154.537 664.46 152.991 664.856C152.487 664.965 151.963 665.054 151.435 665.145C149.113 665.543 146.689 665.959 145.378 668.086C140.066 677.041 151.133 687.185 159.818 680.954C159.69 680.964 159.381 680.857 159.621 680.758C161.949 680.149 163.471 676.982 163.904 674.752C160.607 676.5 158.627 673.255 156.963 670.53C156.532 669.823 156.122 669.152 155.716 668.611C154.921 668.558 154.113 668.708 153.278 668.862C152.98 668.917 152.678 668.973 152.372 669.021C148.114 668.873 151.239 665.113 155.363 666.347C157.393 666.074 159.449 667.515 161.082 668.674C161.486 668.939 161.931 669.141 162.374 669.342C163.082 669.664 163.785 669.984 164.309 670.554C164.36 669.903 164.424 669.251 164.532 668.605C162.729 668.096 161.67 665.94 162.334 664.223C162.582 663.03 163.78 662.045 165.055 662.025C164.983 662.038 164.914 662.048 164.845 662.061C164.952 662.051 165.586 661.953 165.559 661.939C166.2 661.997 167.045 662.187 167.363 662.761C194.009 637.868 221.114 613.423 248.221 588.978C270.263 569.1 292.306 549.221 314.104 529.099C312.94 523.589 311.787 518.079 310.638 512.569C309.553 513.822 308.286 514.956 307.031 516.078ZM165.54 661.937C165.551 661.937 165.557 661.938 165.559 661.939C165.553 661.938 165.546 661.938 165.54 661.937ZM195.066 640.415C189.336 645.616 183.604 650.818 177.874 656.015C192.658 652.809 207.911 652.051 222.981 651.335C220.367 650.323 217.745 649.326 215.122 648.328C208.398 645.77 201.669 643.209 195.066 640.415ZM171.156 662.04C175.532 659.887 180.92 658.762 185.278 661.438C188.247 663.051 192.064 668.534 189.207 671.612C225.342 675.98 261.337 681.378 297.291 686.983C297.57 683.757 297.747 680.513 297.819 677.247C278.635 671.208 259.602 664.688 240.678 657.895C236.764 656.476 232.855 655.034 228.954 653.578C226.623 653.618 224.289 653.678 221.957 653.757C212.984 653.937 204.045 654.713 195.108 655.489C189.047 656.015 182.986 656.541 176.917 656.881C176.264 657.469 175.592 658.051 174.916 658.636C173.64 659.74 172.352 660.856 171.156 662.04ZM310.964 689.155C311.192 686.557 311.359 683.946 311.459 681.322C308.597 680.533 305.75 679.694 302.91 678.827C302.816 681.829 302.633 684.815 302.369 687.787C305.234 688.238 308.099 688.694 310.964 689.155ZM266.86 575.13C290.739 602.811 303.54 639.181 302.978 675.72C305.827 676.577 308.685 677.409 311.552 678.202C312.459 638.939 298.179 599.873 271.682 570.74C271.149 571.225 270.615 571.711 270.082 572.196C269.008 573.174 267.933 574.151 266.86 575.13ZM279.592 563.552C292.321 577.582 302.449 593.582 309.738 611.203C320.118 636.152 324.168 663.778 321.621 690.846L321.84 690.88C330.049 692.165 338.27 693.451 346.419 695.021C348.191 695.159 349.987 695.016 351.676 694.448C338.609 640.475 325.948 586.284 314.688 531.868C302.959 542.396 291.257 552.952 279.592 563.552ZM354.648 695.547C354.744 695.942 354.864 696.342 354.998 696.72C354.948 696.558 354.899 696.396 354.85 696.233C354.781 696.005 354.714 695.776 354.648 695.547ZM391.843 675.2C393.842 669.911 399.737 667.67 403.219 672.986C407.894 682.882 389.647 684.466 391.843 675.2ZM387.108 678.288C387.051 675.109 387.15 671.768 388.359 668.809C387.016 668.77 386.093 667.156 386.772 666.022C381.473 665.206 376.192 664.263 370.942 663.194C370.472 663.206 369.694 662.987 368.836 662.745C366.774 662.165 364.256 661.456 364.478 663.514C364.55 670.414 366.41 677 368.269 683.586C369.317 687.296 370.365 691.006 371.093 694.773C376.142 691.972 381.23 689.251 386.361 686.597C387.07 686.318 387.745 685.889 388.422 685.459C389.711 684.641 391.004 683.82 392.535 684.031C390.524 683.275 388.844 682.018 387.985 679.896C387.485 679.606 387.123 679.072 387.108 678.288ZM363.185 661.518C363.058 661.489 362.931 661.462 362.804 661.433C362.876 661.552 362.943 661.674 363.01 661.796C363.061 661.7 363.12 661.607 363.185 661.518ZM320.556 478.052C316.157 477.584 311.761 477.072 307.368 476.551C310.957 495.263 315.241 513.823 319.524 532.383C324.046 551.973 328.567 571.563 332.272 591.332L332.838 594.149C339.624 627.919 346.424 661.757 356.44 694.775C356.59 695.253 356.734 695.736 356.878 696.222C357.698 698.986 358.533 701.801 360.693 703.884C363.307 705.861 366.54 706.176 368.096 703.075C368.628 701.221 368.258 699.374 367.882 697.492C367.824 697.201 367.766 696.91 367.711 696.617C366.707 691.788 365.881 686.895 365.056 682.002C363.863 674.935 362.671 667.872 360.946 661.011C349.856 658.899 348.019 657.162 348.697 645.909L348.704 645.786C348.972 641.292 349.241 636.758 350.113 632.337C350.675 629.679 351.634 627.07 352.842 624.57C352.893 623.018 352.996 621.47 353.147 619.931C350.634 619.96 350.01 617.32 349.451 614.952C349.238 614.052 349.035 613.192 348.741 612.531C348.613 612.104 348.486 611.677 348.359 611.249C347.739 609.17 347.12 607.091 346.512 605.011C334.221 563.502 324.957 521.034 320.556 478.052ZM340.011 558.88C340.042 558.86 340.075 558.9 340.06 558.927C339.839 559.354 339.414 559.109 339.255 558.754C343.731 577.673 348.216 596.605 353.743 615.261C356.492 597.936 364.447 582.375 372.402 566.816C377.265 557.303 382.128 547.791 385.801 537.876C381.576 539.834 377.346 541.821 373.112 543.811C362.108 548.981 351.074 554.166 340.011 558.88ZM350.571 541.973C346.217 544.27 341.866 546.566 337.533 548.882C337.363 548.937 337.186 548.945 337.014 548.915C337.722 552.11 338.448 555.303 339.192 558.492C339.222 557.869 340.074 557.447 340.697 557.138C340.863 557.056 341.012 556.981 341.126 556.914C346.371 553.927 351.79 551.252 357.206 548.579C357.804 548.283 358.402 547.988 359 547.692C361.655 546.39 364.306 545.082 366.958 543.775C373.694 540.453 380.428 537.132 387.205 533.9C388.784 529.221 389.994 524.439 391.152 519.638C377.914 527.546 364.23 534.765 350.571 541.973ZM325.189 482.933C325.361 484.279 325.531 485.611 325.922 486.921C326.963 502.322 330.257 517.517 333.54 532.667C334.508 537.133 335.475 541.595 336.384 546.057C339.519 544.223 342.827 542.72 346.138 541.214C349.497 539.687 352.859 538.159 356.046 536.284C349.908 539.32 343.76 542.337 337.538 545.177C348.394 539.112 359.627 533.536 370.857 527.962C377.828 524.501 384.798 521.041 391.676 517.466C392.14 515.51 392.604 513.557 393.086 511.606C391.222 511.374 389.568 510.739 387.97 509.726C370.973 500.189 354.69 489.694 339.02 478.171C336.681 478.869 334.129 479.071 331.659 479.028C329.367 479.478 327.037 479.775 324.707 479.892C324.931 480.911 325.06 481.926 325.189 482.933ZM376.833 632.156C383.315 626.915 390.264 621.718 398.347 619.175C397.776 616.102 397.982 612.851 399.173 609.956C380.604 609.947 368.629 611.633 356.862 626.99C356.967 627.294 357.284 627.462 357.565 627.61C357.905 627.79 358.19 627.941 357.97 628.271C362.42 633.939 370.795 637.805 376.833 632.156ZM274.455 483.481C275.714 480.147 277.81 477.124 281.261 475.696C281.59 475.543 281.923 475.399 282.257 475.263C273.209 474.68 264.296 473.382 255.464 471.334C255.608 471.942 255.73 472.561 255.854 473.182C256.227 475.065 256.605 476.969 257.581 478.658C262.038 477.3 264.846 479.486 267.217 482.969C269.004 485.029 272.908 486.717 274.455 483.481ZM243.666 383.045C242.504 384.998 241.583 387.064 240.901 389.201C239.508 393.564 239.106 398.216 239.647 402.775C272.286 382.382 312.554 377.275 350.157 384.39C359.605 385.736 369.22 386.437 378.716 385.146C377.214 376.703 377.943 368.028 378.662 359.472C378.807 357.748 378.952 356.03 379.077 354.32C379.468 348.541 380.12 342.3 384.171 337.764C363.334 334.059 342.531 327.385 324.741 315.902C299.636 299.432 295.647 279.272 290.518 253.347C290.17 251.587 289.816 249.8 289.45 247.986C287.055 267.926 282.87 280.643 277.25 297.724C276.187 300.953 275.073 304.338 273.911 307.956C270.104 318.743 265.233 328.641 260.402 338.46C253.501 352.486 246.678 366.351 243.148 382.412C243.468 382.296 243.869 382.704 243.666 383.045ZM346.551 170.822C319.541 168.909 302.152 172.379 295.801 197.321C287.009 233.183 295.497 266.837 312.292 299.6C327.664 321.389 356.391 327.163 381.802 332.27C382.645 332.44 383.485 332.609 384.32 332.777C385.458 331.863 388.359 332.899 391.125 333.886C393.116 334.597 395.036 335.283 396.18 335.199C396.23 335.143 396.281 335.082 396.332 335.021C396.439 334.893 396.548 334.763 396.664 334.662C396.332 334.953 396.333 334.952 396.441 334.842C396.545 334.736 396.748 334.529 396.847 334.385C398.412 332.098 399.546 329.502 400.64 326.973C400.642 326.968 400.647 326.954 400.653 326.945C400.653 326.937 400.657 326.929 400.663 326.92C401.911 323.992 403.028 321.708 404.145 319.425C405.261 317.144 406.377 314.863 407.624 311.938C357.353 301.135 318.138 265.264 332.001 215.012C332.07 214.813 332.378 214.841 332.38 215.062C332.389 216.923 332.366 218.783 332.342 220.643C332.293 224.518 332.245 228.392 332.491 232.27C334.17 268.664 356.247 285.983 390.619 300.723C386.894 277.906 378.685 261.091 370.88 245.104C359.983 222.784 349.874 202.076 353.853 168.895C351.691 170.095 349.139 170.622 346.551 170.822ZM401.748 179.947C393.233 194.282 369.183 193.132 358.19 182.119C357.223 181.113 356.348 179.994 355.609 178.805C356.629 207.839 365.514 225.662 374.899 244.486C382.335 259.401 390.083 274.943 394.481 297.187C395.137 289.741 395.75 282.99 396.318 276.722C399.496 241.675 401.303 221.742 401.748 179.947ZM420.829 185.673C416.047 182.114 410.924 178.975 405.406 176.626L405.265 176.556C404.524 176.182 403.765 175.8 403.01 175.395C407.395 214.602 405.425 237.394 402.777 268.046C401.846 278.826 400.83 290.579 399.978 304.36C404.067 305.717 408.252 306.814 412.499 307.626C414.859 308.079 414.892 311.3 413.279 312.412C413.128 312.684 412.975 312.238 412.831 311.819C412.697 311.428 412.571 311.061 412.463 311.328C412.468 311.31 412.481 311.283 412.496 311.24C412.048 312.297 411.637 313.368 411.226 314.438C414.482 315.159 417.658 316.23 420.828 317.3C424.647 318.588 428.457 319.874 432.386 320.539C429.613 318.307 426.83 316.001 424.599 313.226C423.785 312.092 423.084 311.866 422.248 311.595C421.639 311.398 420.957 311.178 420.106 310.565C420.065 311.457 420.022 312.023 419.987 312.486C419.92 313.373 419.881 313.882 419.945 315.582C419.993 316.915 418.016 316.852 417.878 315.582C417.646 314.1 417.416 312.683 417.193 311.311C415.971 303.784 414.965 297.592 415.068 289.337C415.075 286.027 415.073 282.875 415.071 279.85C415.055 251.736 415.046 234.664 422.261 204.584C422.322 204.43 422.522 204.463 422.543 204.621C422.813 206.694 422.728 208.777 422.642 210.86C422.627 211.247 422.611 211.634 422.597 212.021C422.123 219.417 421.634 225.917 421.182 231.927C419.633 252.541 418.517 267.381 419.893 292.812C420.137 294.4 420.098 296.306 420.057 298.281C419.971 302.513 419.878 307.06 422.546 309.465C426.038 313.297 430.236 315.172 434.658 317.148C436.897 318.149 439.194 319.175 441.486 320.494C442.152 321.009 442.946 320.85 443.738 320.692C444.035 320.632 444.331 320.573 444.621 320.549C446.511 320.224 448.355 320.025 450.245 320.476C454.822 321.582 457.99 325.385 460.666 328.944C464.183 326.878 468.225 326.331 472.273 325.784C475.209 325.387 478.147 324.99 480.892 324.012C480.648 323.417 480.448 322.805 480.32 322.187C430.44 297.181 431.387 281.877 435.367 233.286C435.427 230.409 435.496 227.868 435.558 225.541C435.837 215.23 436.003 209.094 434.785 196.405C433.866 191.845 430.292 190.305 426.497 188.671C424.557 187.835 422.559 186.974 420.829 185.673ZM484.288 322.696C484.984 324.162 485.833 325.95 483.811 326.701C479.657 328.224 475.279 328.678 470.895 329.132C467.856 329.447 464.814 329.762 461.841 330.434C462.102 330.787 462.532 331.216 463.004 331.686C464.592 333.268 466.647 335.314 464.242 336.512C464.36 336.767 464.473 337.026 464.583 337.291C469.602 336.655 474.642 336.14 479.682 335.624C483.028 335.281 486.373 334.939 489.713 334.562C486.909 330.613 485.423 325.89 485.24 321.091C485.066 321.651 484.651 322.162 484.181 322.47C484.216 322.544 484.252 322.62 484.288 322.696ZM554.081 348.157C537.214 335.551 518.855 321.83 496.615 322.744C494.169 322.707 491.617 322.704 489.165 322.976C489.459 326.043 490.585 329.032 492.204 331.666C512.245 328.402 529.951 339.839 543.256 353.392C549.549 358.099 557.808 358.693 565.434 358.916C565.126 357.314 564.813 355.708 564.501 354.1C561.976 354.276 560.056 352.719 558.158 351.18C557.331 350.509 556.508 349.842 555.641 349.323C555.123 348.935 554.603 348.547 554.081 348.157ZM513.466 313.521C511.497 309.26 504.668 311.344 501.306 312.782C500.577 313.201 499.993 313.664 499.564 314.287C500.549 314.619 501.234 315.62 501.224 316.598C505.414 317.255 509.68 317.581 513.925 317.5C514.063 316.229 514.024 315.143 513.666 314.078C513.668 314.085 513.45 313.521 513.466 313.521ZM541.379 357.171C541.36 357.189 541.341 357.207 541.321 357.225C540.677 357.797 540.038 358.404 539.394 359.015C538.931 359.454 538.465 359.896 537.993 360.33C540.857 360.954 543.825 360.636 546.735 360.325C546.927 360.304 547.12 360.284 547.312 360.263C545.223 359.448 543.25 358.415 541.423 357.125C541.409 357.141 541.394 357.156 541.379 357.171ZM422.556 351.512C423.036 351.331 423.521 351.099 424.01 350.839C423.793 350.656 423.576 350.472 423.359 350.289C421.883 349.04 420.409 347.793 418.884 346.61C418.765 348.622 420.581 350.031 422.057 351.176C422.124 351.228 422.191 351.28 422.256 351.331C422.354 351.394 422.454 351.454 422.556 351.512ZM458 331.23C455.214 327.458 452.35 323.582 447.335 323.483C447.482 323.559 447.626 323.639 447.767 323.722C445.117 322.81 442.413 323.177 439.723 323.543C438.09 323.765 436.462 323.987 434.855 323.921C430.102 323.535 425.773 321.88 421.446 320.225C417.823 318.839 414.202 317.455 410.336 316.816C409.873 318.058 409.419 319.307 408.965 320.557C406.934 326.145 404.894 331.758 401.918 336.905C411.566 335.371 419.989 342.319 426.988 348.092C427.272 348.326 427.553 348.558 427.833 348.788C427.92 348.75 428.007 348.713 428.094 348.677C428.833 349.507 429.814 350.005 430.774 350.492C430.932 350.572 431.091 350.653 431.247 350.734C431.258 351.295 431.831 351.486 432.371 351.666C432.616 351.748 432.854 351.827 433.03 351.937C432.991 352.001 432.955 352.067 432.913 352.13C434.793 352.658 436.564 352.027 438.408 351.369C438.507 351.333 438.606 351.298 438.705 351.263C441.623 350.146 444.597 349.138 447.571 348.13C452.14 346.582 456.71 345.033 461.077 343.09C462.561 341.894 461.949 340.343 461.367 338.866C460.849 337.551 460.354 336.295 461.383 335.401C460.182 334.185 459.097 332.716 458 331.23ZM401.202 337.964C400.012 339.559 398.473 340.784 396.237 340.882C395.683 340.907 395.131 340.867 394.585 340.786C394.471 343.143 394.322 345.508 394.173 347.879C393.555 357.667 392.933 367.536 394.798 377.19C402.177 378.794 409.659 379.958 417.199 380.494C417.509 371.603 417.131 362.698 416.445 353.833C414.274 351.224 412.721 346.871 416.619 344.935C412.013 341.589 406.666 339.506 401.202 337.964ZM384.493 360.977C384.21 366.476 383.926 371.979 384.198 377.485C384.146 378.33 384.291 379.355 384.443 380.425C384.806 382.985 385.205 385.8 383.02 386.996C382.668 388.839 377.51 389.299 374.317 389.583C373.496 389.656 372.805 389.718 372.358 389.788C380.354 390.486 388.055 392.645 395.752 394.802C399.209 395.771 402.665 396.74 406.147 397.576C402.232 393.829 398.473 388.789 399.373 383.138C391.063 382.017 389.058 381.12 389.062 372.429C388.538 361.758 389.006 350.476 393.185 340.502C391.204 339.934 389.326 339.421 387.311 338.876C385.102 343.518 384.951 348.7 384.804 353.765C384.78 354.595 384.756 355.422 384.723 356.242C384.655 357.82 384.574 359.398 384.493 360.977ZM558.11 423.68C554.484 403.056 556.587 392.773 568.643 375.587C567.832 371.399 567.024 367.213 566.224 363.022C563.325 363.275 560.299 362.897 557.331 362.527C556.015 362.363 554.71 362.2 553.432 362.094C551.925 362.204 550.395 362.406 548.855 362.608C544.429 363.19 539.929 363.782 535.716 362.258C530.71 367.116 501.827 358.372 494.602 356.101C492.72 355.477 490.823 354.883 488.924 354.289C480.921 351.785 472.903 349.276 465.94 344.455C464.563 343.569 465.85 341.388 467.234 342.279C470.31 344.259 473.532 346.012 476.882 347.493C489.923 352.331 503.547 355.162 517.157 357.99C520.388 358.662 523.618 359.333 526.84 360.031C527.564 360.09 528.331 360.3 529.106 360.511C530.84 360.985 532.612 361.469 534.029 360.305C535.274 359.238 536.495 358.142 537.716 357.046C538.274 356.546 538.831 356.045 539.391 355.547C527.213 342.368 511.228 334.146 492.989 332.969C495.76 337.65 490.284 338.578 486.7 338.604C483.406 338.969 480.12 339.377 476.834 339.785C473.075 340.252 469.316 340.719 465.548 341.122C465.926 345.287 461.774 347.247 458.331 348.271C452.626 350.381 446.922 352.49 441.216 354.599C437.44 356.272 433 357.391 429.312 354.899C428.957 355.083 428.596 355.279 428.231 355.478C425.949 356.718 423.48 358.06 420.877 357.241C421.519 365.726 421.515 374.235 421.377 382.737C421.364 383.861 420.402 384.862 419.235 384.842C412.984 384.733 406.731 384.27 400.551 383.319C402.248 386.879 405.193 389.536 408.085 392.145C408.956 392.931 409.823 393.713 410.649 394.514C411.171 395.049 411.769 395.547 412.371 396.049C413.722 397.175 415.093 398.317 415.678 399.93C438.909 405.784 462.078 414.014 482.031 427.296C491.068 433.445 487.827 443.772 484.032 452.002C480.166 461.714 476.203 471.388 472.147 481.026C494.354 467.957 517.049 455.697 539.737 443.442C547.617 439.185 555.495 434.93 563.352 430.641C560.079 430.008 558.533 426.634 558.11 423.68ZM462.783 502.818C462.971 502.714 463.163 502.615 463.352 502.512C463.187 502.558 463.019 502.602 462.855 502.651C462.841 502.683 462.828 502.715 462.814 502.746L462.783 502.818ZM572.685 440.408C572.516 439.438 572.347 438.467 572.151 437.498C571.722 435.405 571.326 433.078 571.951 430.973C569.775 430.491 567.624 430.217 565.408 430.749C551.535 440.353 536.649 448.428 521.784 456.492C516.632 459.286 511.483 462.08 506.379 464.935C504.172 466.167 501.962 467.396 499.751 468.625C490.123 473.977 480.493 479.331 471.058 485.008C468.907 487.83 467.545 491.375 466.183 494.918C465.282 497.263 464.381 499.607 463.252 501.739C463.578 501.61 463.904 501.481 464.231 501.352C471.633 498.42 479.107 495.46 485.881 491.286C486.638 491.13 488.532 489.969 490.574 488.717C493.694 486.805 497.158 484.682 497.437 485.608C515.315 476.805 532.915 467.478 550.36 457.876C554 455.88 557.629 453.869 561.248 451.837C562.187 451.432 563.568 450.565 565.095 449.607C568.245 447.629 572.013 445.264 573.79 445.769C573.309 443.995 572.997 442.203 572.685 440.408ZM432.754 635.166L432.961 635.141C432.913 635.112 432.866 635.083 432.818 635.054C432.576 635.114 432.335 635.178 432.095 635.246C432.315 635.218 432.534 635.192 432.754 635.166ZM431.761 631.536C431.808 631.35 431.89 631.173 432.01 631.012C467.721 587.672 509.456 549.549 551.053 511.553C562.204 501.368 573.345 491.191 584.357 480.926C583.767 479.135 583.17 477.345 582.573 475.556C579.57 466.555 576.565 457.551 574.429 448.31C544.086 467.056 511.613 482.803 479.09 497.662C488.532 506.18 484.041 519.606 478.256 528.884C472.89 538.496 467.465 548.076 462.04 557.656C459.411 562.298 456.783 566.941 454.16 571.587C447.561 582.529 441.657 593.827 435.753 605.127C433.29 609.84 430.828 614.553 428.314 619.241C428.015 619.691 427.716 620.204 427.404 620.738C426.08 623.009 424.533 625.661 421.789 625.483C423.976 627.307 426.521 627.599 429.277 627.039C430.369 626.914 430.573 628.673 429.533 628.9C429 629.017 428.466 629.123 427.932 629.225C429.208 629.996 430.485 630.765 431.761 631.536ZM575.138 408.984C574.788 407.19 574.438 405.395 574.09 403.602C573.601 401.092 573.112 398.583 572.624 396.073C571.467 390.136 570.31 384.199 569.16 378.261C568.612 379.377 568.05 380.49 567.487 381.603C563.932 388.633 560.367 395.686 560.45 403.763C560.291 409.315 561.001 414.882 561.789 420.368C561.833 420.676 561.871 421.013 561.91 421.367C562.094 423.004 562.318 424.999 563.402 426.115C564.423 426.847 565.668 426.62 566.941 426.387C567.965 426.2 569.008 426.009 569.965 426.314C570.243 426.361 570.542 426.451 570.849 426.543C571.608 426.771 572.418 427.015 573.092 426.669C574.826 425.376 575.459 423.288 576.079 421.24C576.357 420.323 576.632 419.413 577.003 418.587C576.385 415.386 575.761 412.185 575.138 408.984ZM578.982 426.606C578.9 426.483 578.823 426.358 578.752 426.23C578.646 426.449 578.532 426.664 578.415 426.876C578.527 426.817 578.641 426.761 578.756 426.707C578.831 426.672 578.906 426.638 578.982 426.606ZM590.124 432.14C590.111 432.056 590.097 431.971 590.084 431.887C590.035 431.861 589.988 431.835 589.943 431.807C589.912 431.788 589.881 431.768 589.852 431.747C589.974 432.051 590.095 432.355 590.215 432.658C590.183 432.486 590.153 432.313 590.124 432.14ZM671.817 441.712C648.126 446.074 622.983 441.195 600.225 434.3C597.387 433.363 594.571 432.34 591.814 431.186C594.965 443.404 598.713 455.473 602.463 467.545C605.411 477.039 608.361 486.535 611.021 496.107C612.499 496.771 612.742 499.003 611.697 500.117C614.933 500.943 616.741 504.087 618.43 507.023C618.968 507.96 619.495 508.876 620.052 509.688C641.472 490.513 662.074 469.09 671.817 441.712ZM678.433 328.032C678.746 327.106 677.261 326.709 676.949 327.63C670.121 350.061 664.336 372.876 659.314 395.761C658.359 398.915 660.9 398.748 660.678 397.149C665.434 373.885 671.745 350.835 678.433 328.032ZM53.4605 515.606C54.0196 516.175 54.7044 516.609 55.5482 516.82C55.8714 516.904 56.1997 516.957 56.5331 516.987C55.7847 516.766 55.0691 516.197 54.6095 515.475C54.2376 515.583 53.8452 515.626 53.4605 515.606ZM49.6086 501.198C49.642 500.694 49.6881 500.19 49.7446 499.688C49.7685 499.479 49.7898 499.255 49.8119 499.021C49.9133 497.953 50.0328 496.694 50.5063 495.802C49.9036 496.034 49.3034 496.274 48.7007 496.52C49.0675 498.065 49.3496 499.63 49.6086 501.198Z" fill="black"/>
</g>
<g id="Head">
<g id="head/Long Curly">
<path id="&#240;&#159;&#142;&#168; Background_2" fill-rule="evenodd" clip-rule="evenodd" d="M413.625 81.8102C397.132 68.4248 370.703 64.0786 353.049 77.5829C339.331 90.2564 333.655 126.27 336.082 144.367C336.757 155.975 345.638 169.131 358.674 165.46C360.888 165.242 363.037 164.395 365.271 164.217C367.944 163.91 370.636 163.905 373.303 164.281C379.115 165.102 384.267 168.183 389.907 169.624C400.374 172.296 412.052 170.499 421.061 164.478C450.833 144.932 437.347 100.728 413.625 81.8102V81.8102Z" fill="white"/>
<path id="&#240;&#159;&#150;&#141; Ink_2" fill-rule="evenodd" clip-rule="evenodd" d="M411.428 169.945C411.734 169.84 412.04 169.73 412.343 169.617C412.363 169.687 412.396 169.755 412.434 169.82C412.476 169.925 412.519 170.028 412.566 170.13C412.185 170.133 411.804 170.065 411.428 169.945M410.816 40.2329C410.681 39.9302 410.525 39.6397 410.349 39.3591C410.776 39.497 411.202 39.6873 411.588 39.9327C411.328 40.0204 411.072 40.1205 410.816 40.2329M345.671 79.8364C345.654 79.8334 345.636 79.8309 345.619 79.8279C345.843 79.2332 346.241 78.6718 346.681 78.2664C346.76 78.1935 346.846 78.1262 346.928 78.0565C346.461 78.6122 346.038 79.2049 345.671 79.8364M464.869 142.023C464.649 139.935 464.368 137.854 464.004 135.786C463.656 133.805 463.362 131.687 462.352 129.929C461.349 128.179 460.343 126.478 459.15 124.938C459.32 124.152 459.546 123.414 459.741 122.818C460.87 119.387 461.981 115.03 459.636 111.843C459.092 111.104 458.428 110.538 457.668 110.027C457.344 109.809 456.808 109.611 456.559 109.311C456.384 109.098 456.444 109.213 456.436 109.108C456.394 108.542 457.723 107.348 458.034 106.9C458.616 106.071 459.049 105.137 459.38 104.183C460.689 100.407 459.799 96.2476 459.012 92.4638C458.596 90.4584 458.137 88.4477 457.986 86.3994C457.846 84.4763 458.109 82.5983 458.264 80.6853C458.415 78.797 458.375 76.8492 457.565 75.1011C457.169 74.2498 456.57 73.4986 455.84 72.9126C455.128 72.3395 454.24 72.0064 453.545 71.4355C452.853 70.8668 453.051 70.0984 453.232 69.3121C453.48 68.2454 453.793 67.1862 453.823 66.0845C453.879 64.1639 453.094 62.2932 451.868 60.8411C450.604 59.3412 448.798 58.3268 446.847 58.099C445.955 57.9938 445.077 58.1718 444.189 58.1092C443.312 58.0491 443.121 57.6109 442.956 56.8096C442.575 54.9742 442.73 53.1613 441.825 51.4486C441.022 49.9262 439.595 48.8943 438.018 48.286C435.127 47.1693 431.764 47.3996 428.715 48.0579C426.915 42.7697 421.295 39.3017 415.766 39.2591C414.903 37.7968 413.441 36.705 411.774 36.0638C409.016 34.9996 406.094 35.6208 403.221 35.6208H403.208C402.919 35.603 402.631 35.5958 402.343 35.5983C402.072 35.583 401.801 35.5605 401.53 35.5307C398.26 35.1448 395.026 33.8077 391.786 35.1175C390.341 35.7009 389.193 36.5999 388.466 37.7467C387.37 38.0444 386.289 38.3852 385.229 38.7809C380.632 38.9008 376.078 41.3622 373.754 45.3513C370.481 44.9808 366.931 45.6093 364.766 48.2785C364.203 48.9731 363.766 49.7892 363.477 50.6556C361.27 51.3682 359.228 52.638 357.892 54.5505C356.672 56.2958 356.438 58.5524 357.263 60.4259C355.293 61.8509 353.754 63.891 353.012 66.2998C352.562 67.7634 352.495 69.2756 352.784 70.7161C350.768 71.1628 348.838 71.9909 347.129 73.2336C345.338 74.5355 343.101 76.6075 342.983 78.9923C342.974 79.1674 342.981 79.3424 342.995 79.5169C339.052 79.2402 335.031 79.9073 332.366 83.0641C330.365 85.4326 329.495 88.4827 330.029 91.2597C325.337 92.2112 320.901 94.6601 317.807 98.2809C315.558 100.913 313.559 104.258 313.679 107.841C313.717 108.92 313.97 110.007 314.409 111.011V111.013C314.221 111.367 314.028 111.76 313.842 112.178C310.936 114.209 308.825 117.391 307.636 120.9C306.676 123.741 306.072 127.432 307.097 130.325C307.253 130.765 307.451 131.181 307.681 131.566C307.488 131.772 307.305 131.977 307.127 132.185C305.169 134.471 303.185 137.351 303.321 140.498C303.376 141.765 303.847 143.04 304.617 144.086C301.909 146.828 299.727 150.289 299.943 154.153C300.128 157.515 301.977 160.931 304.873 162.546C304.389 165.138 305.036 167.872 307.057 169.895C308.065 170.907 309.253 171.573 310.512 171.929C310.793 174.981 313.506 177.437 316.388 178.143C316.924 178.276 317.461 178.356 317.995 178.394C320.588 179.663 323.68 179.518 326.325 178.354C327.105 179.343 328.121 180.149 329.304 180.728C329.783 180.963 330.29 181.158 330.819 181.316C334.555 182.42 338.387 180.923 341.654 179.175C341.759 179.12 341.952 179.05 342.123 178.972C342.574 179.476 343.397 179.974 343.826 180.219C345.28 181.053 347.058 181.441 348.728 181.331C350.687 181.201 352.414 180.555 354.014 179.636C354.247 179.676 354.483 179.698 354.719 179.711C356.223 179.791 357.565 179.315 358.771 178.564C359.568 178.669 360.386 178.659 361.213 178.514C363.036 178.977 364.812 178.241 366.238 177.072C366.871 176.553 367.404 175.945 367.976 175.364C368.57 174.76 369.022 174.62 369.716 174.215C371.359 173.256 371.557 170.824 370.845 169.066C370.98 168.758 371.058 168.415 371.058 168.035C371.053 164.714 369.521 161.67 367.64 159.013C366.8 157.828 365.888 156.669 364.887 155.617C364.082 154.773 362.951 153.404 361.76 153.061C361.687 153.008 361.612 152.955 361.537 152.906C361.768 152.099 361.903 151.278 361.845 150.439C361.785 149.578 361.507 148.761 361.06 148.065C362.557 145.168 363.189 141.991 362.889 138.675C364.107 136.95 365.03 135.045 365.506 132.956C365.8 131.664 365.968 130.305 365.945 128.98C365.935 128.344 365.702 127.54 365.697 126.882C365.732 127.089 366.003 126.313 366.108 126.12C367.317 123.879 368.869 122.131 369.127 119.49C369.278 117.945 368.911 116.237 367.984 114.97C368.578 112.631 368.57 110.12 367.635 107.889C367.384 107.293 367.096 106.709 366.765 106.156C366.918 105.69 367.059 105.219 367.239 104.796C367.309 104.628 367.379 104.458 367.45 104.288C368.129 103.689 368.761 103.036 369.293 102.395C370.471 100.975 371.372 99.3476 371.485 97.4718C371.54 96.5328 371.319 95.6339 371.046 94.7427C370.925 94.3396 370.852 93.8914 370.709 93.4982C370.629 93.2801 370.436 93.0575 370.369 92.8522C370.353 92.8071 370.341 92.7696 370.331 92.7395C370.341 92.7095 370.349 92.6469 370.349 92.5289C370.351 91.63 370.469 90.7511 370.474 89.885C371.299 90.7163 372.292 91.337 373.42 91.7004C375.695 92.429 378.067 92.0985 380.08 90.9742C382.247 92.4566 384.682 93.7985 387.235 94.3371C388.752 94.6573 390.271 94.5249 391.793 94.7227C393.305 94.9205 394.767 95.5791 396.192 96.0924C399.361 97.2367 402.523 98.4108 405.703 99.5254C408.271 100.424 411.049 101.138 413.737 100.632C414.492 101.794 415.473 102.776 416.729 103.497C417.629 104.01 418.617 104.358 419.638 104.531C420.54 104.684 421.599 104.624 422.331 105.242C423.045 105.843 423.492 106.739 424.134 107.415C424.849 108.172 425.731 108.828 426.656 109.298C427.399 109.677 428.156 109.949 428.926 110.127C428.858 111.838 428.793 113.545 428.773 115.258C428.735 118.979 428.75 122.7 428.7 126.421C428.65 130.129 428.532 133.838 428.337 137.541C428.151 141.017 427.89 144.504 427.06 147.895C424.307 159.146 413.993 167.201 402.448 167.612C399.02 167.734 395.627 167.254 392.35 166.247C388.955 165.203 385.923 163.054 382.442 162.393C381.532 162.223 380.675 163.137 381.196 164.016C382.094 165.526 383.185 166.447 384.677 167.356C386.239 168.305 387.979 169.009 389.697 169.625C392.856 170.756 396.199 171.413 399.552 171.595C402.109 171.735 404.677 171.56 407.182 171.08C407.358 171.618 407.669 172.141 407.905 172.64C407.94 172.712 408.058 172.662 408.035 172.587C407.997 172.462 407.972 172.352 407.962 172.262C408.805 173.358 410.106 174.117 411.443 174.485C412.386 174.746 413.386 174.825 414.357 174.715C414.67 174.68 414.968 174.628 415.265 174.563C416.252 175.427 417.516 176.003 418.785 176.29C418.567 177.613 419.221 179.055 420.739 179.43C421.375 179.588 421.987 179.591 422.599 179.533C423.093 179.764 423.625 179.944 424.189 180.067C424.924 180.227 425.801 180.021 426.355 179.491C426.659 179.703 426.942 179.851 427.223 180.189C428.379 181.581 430.872 180.472 430.982 178.862C431.348 178.862 431.717 178.867 432.085 178.88C432.173 178.92 432.261 178.96 432.351 179.002C433.963 179.751 435.633 180.405 437.417 179.816C437.745 179.708 438.046 179.571 438.319 179.41C439.575 179.523 440.814 179.526 442.088 179.115C442.84 178.872 443.547 178.486 444.137 177.981C446.103 178.557 448.177 178.817 450.133 178.103C451.597 177.57 452.776 176.729 453.605 175.619C454.874 175.664 456.163 175.359 457.324 174.756C459.31 173.729 460.702 171.778 461.672 169.823C463.809 165.508 465.073 160.873 465.569 156.093C466.058 151.386 465.361 146.703 464.869 142.023" fill="black"/>
</g>
<g id="face/Smile Big">
<path id="&#240;&#159;&#150;&#141; Ink_3" fill-rule="evenodd" clip-rule="evenodd" d="M390.79 138.34C395.089 137.819 399.255 139.133 403.457 139.796C405.676 140.145 407.898 140.406 410.143 140.503C410.594 140.523 411.046 140.534 411.498 140.544C411.54 140.146 411.763 139.782 412.245 139.563C413.234 139.116 414.026 138.914 415.111 138.957C416.105 138.996 417.103 139.098 418.081 139.277C419.858 139.602 421.643 140.341 422.943 141.623C425.952 144.591 425.494 149.359 423.169 152.591C418.367 159.271 409.601 159.582 402.094 159.494L401.401 159.485C394.566 159.388 384.786 160.405 381.681 152.64C380.539 149.784 380.697 146.474 382.096 143.735C383.763 140.468 387.274 138.766 390.79 138.34ZM412.142 149.462L412.081 149.465C408.929 149.586 405.778 149.671 402.625 149.727C402.719 150.536 402.815 151.345 402.926 152.152C403.012 152.786 403.104 153.421 403.201 154.054C403.242 154.322 403.391 154.739 403.349 155.005L403.334 155.11V155.11C403.496 155.183 403.642 155.3 403.752 155.471C403.79 155.53 403.817 155.59 403.845 155.649C406.293 155.669 408.928 155.621 411.423 155.177L411.428 155.123V155.123C411.474 154.804 411.606 154.59 411.782 154.443C411.958 153.428 411.942 152.346 412.009 151.339C412.052 150.713 412.098 150.088 412.142 149.462ZM400.216 149.77C397.945 149.809 395.672 149.838 393.401 149.811L392.37 149.795V149.795C392.588 150.961 392.825 152.124 393.022 153.298C393.227 154.522 392.149 155.299 391.215 155.268C391.32 155.285 391.424 155.303 391.529 155.318C394.446 155.73 397.475 155.62 400.435 155.617C400.276 154.689 400.34 153.642 400.316 152.867L400.312 152.747C400.266 151.754 400.235 150.762 400.216 149.77ZM384.787 149.556C384.866 150.163 385.019 150.756 385.248 151.309C386.218 153.644 388.441 154.733 390.793 155.192C390.385 155.051 390.061 154.713 389.979 154.134C389.775 152.694 389.702 151.23 389.696 149.768C388.057 149.753 386.407 149.718 384.787 149.556ZM420.69 149.058C419.523 149.332 418.167 149.206 417.022 149.258C415.949 149.307 414.876 149.349 413.803 149.393C413.854 150.124 413.903 150.855 413.957 151.586C414.026 152.531 414.032 153.529 414.213 154.469C416.372 153.734 418.307 152.554 419.758 150.667C420.12 150.197 420.443 149.645 420.69 149.058ZM390.297 142.171C388.354 142.63 386.515 143.601 385.527 145.376C384.941 146.429 384.683 147.678 384.732 148.908C386.374 148.717 388.045 148.645 389.707 148.585C389.712 148.286 389.719 147.987 389.728 147.689L389.754 146.926C389.799 145.469 389.822 143.64 390.297 142.171ZM400.352 142.349L399.497 142.253C397.122 141.982 394.747 141.699 392.372 141.861C392.028 141.885 391.679 141.922 391.329 141.974C391.749 143.487 391.714 145.263 391.889 146.761C391.957 147.34 392.043 147.915 392.137 148.487L392.55 148.467V148.467C395.099 148.33 397.65 148.245 400.201 148.144C400.201 147.665 400.204 147.187 400.211 146.708L400.221 146.229C400.25 145.006 400.171 143.629 400.352 142.349ZM412.281 142.154C409.793 142.555 407.222 142.641 404.778 142.644C403.802 142.645 402.826 142.585 401.851 142.499C401.915 143.017 401.948 143.542 401.996 144.053C402.092 145.086 402.202 146.117 402.322 147.148L402.428 148.05V148.05C405.564 147.908 408.699 147.754 411.834 147.595L412.276 147.572V147.572L412.4 145.839C412.485 144.683 412.577 143.528 412.709 142.377L412.61 142.342V142.342C412.495 142.295 412.385 142.229 412.281 142.154ZM413.361 142.585C413.499 144.219 413.574 145.859 413.675 147.496L415.742 147.386C416.086 147.367 416.431 147.348 416.775 147.328C418.114 147.251 419.835 146.846 421.159 147.224C421.26 146.022 420.916 144.851 419.83 144.044C417.923 142.625 415.495 143.13 413.361 142.585ZM406.301 127.978C409.378 126.218 417.099 124.419 417.588 129.949C417.813 132.494 415.919 134.603 413.706 135.544L413.623 135.578C411.548 136.43 407.87 137.392 406.075 135.545C404.58 134.008 406.562 131.251 408.419 132.511C409.374 133.158 411.383 132.681 412.448 132.373L412.514 132.354C413.664 132.016 415.196 130.937 414.72 129.524C414.3 128.274 412.511 128.045 411.39 128.005C409.717 127.945 408.089 128.333 406.432 128.459C406.169 128.479 406.088 128.1 406.301 127.978ZM419.048 119.085C423.224 118.89 425.822 123.444 424.862 127.175C424.696 127.819 423.975 128.451 423.279 128.379L423.103 128.362C423.014 128.354 422.925 128.343 422.842 128.32C422.181 128.137 421.589 127.451 421.637 126.739L421.65 126.532C421.747 124.769 421.556 122.738 419.458 122.311C417.679 121.949 416.686 123.659 416.665 125.233C416.661 125.513 416.346 125.708 416.099 125.558C414.813 124.776 414.59 123.221 415.081 121.882C415.704 120.186 417.262 119.169 419.048 119.085ZM388.054 120.062C391.093 119.05 394.372 120.667 395.844 123.351C396.36 123.5 396.876 123.897 396.804 124.506C396.701 125.381 396.545 125.933 395.937 126.597C394.986 127.635 393.205 127.104 392.81 125.826L392.793 125.768C392.345 124.116 390.523 123.026 388.864 123.604C386.925 124.28 386.982 126.324 385.622 127.515C385.462 127.655 385.271 127.677 385.079 127.585C383.635 126.888 383.895 124.79 384.409 123.59C385.085 122.015 386.397 120.614 388.054 120.062ZM383.914 110.846C386.377 108.336 392.799 105.908 394.484 110.542C394.805 111.424 394.122 112.615 393.202 112.798C391.695 113.097 390.358 112.444 388.861 112.561C387.649 112.656 386.385 113.061 385.416 113.811C382.732 115.887 382.142 119.399 380.272 122.041C380.181 122.17 380.004 122.116 379.987 121.964C379.561 118.117 381.216 113.594 383.914 110.846ZM416.035 108.375C417.669 107.799 419.52 107.848 421.163 108.359C422.818 108.875 424.338 109.853 425.508 111.132C426.039 111.712 426.531 112.353 426.925 113.035C427.134 113.396 427.354 114.142 427.592 114.587C428.88 115.329 429.43 117.021 428.278 118.224L428.226 118.277L428.071 118.429C427.452 119.042 426.517 119.307 425.672 119.063C423.779 118.516 423.549 117.027 422.894 115.447C422.461 114.404 421.719 113.48 420.82 112.802C418.696 111.199 415.212 110.689 412.654 111.444C412.518 111.484 412.358 111.311 412.455 111.185C412.94 110.558 413.219 110.044 413.868 109.538C414.527 109.024 415.246 108.654 416.035 108.375Z" fill="black"/>
</g>
</g>
</g>
</svg>
